<?xml version="1.0" encoding="utf-8"?>
<!-- Generator: Adobe Illustrator 23.0.2, SVG Export Plug-In . SVG Version: 6.00 Build 0)  -->
<svg version="1.1" id="Layer_1" xmlns="http://www.w3.org/2000/svg" xmlns:xlink="http://www.w3.org/1999/xlink" x="0px" y="0px"
	 viewBox="0 0 48 48" style="enable-background:new 0 0 48 48;" xml:space="preserve">
<style type="text/css">
	.st0{fill:#FFFFFF;}
</style>
<path class="st0" d="M42.1,32.4c-0.2-0.5-0.4-1-0.6-1.4c-0.3-0.7-0.6-1.4-0.9-2l0,0c-2.8-6-5.7-12.1-8.8-18.1l-0.1-0.2
	c-0.3-0.6-0.6-1.2-1-1.9c-0.4-0.7-0.8-1.5-1.4-2.2C27.8,4.9,26,4,24,4c-2,0-3.8,0.9-5.1,2.4c-0.6,0.7-1,1.5-1.4,2.2
	c-0.3,0.6-0.6,1.3-1,1.9l-0.1,0.2c-3.1,6-6.1,12.1-8.8,18.1l0,0.1c-0.3,0.6-0.6,1.3-0.9,2c-0.2,0.4-0.4,0.9-0.6,1.4
	c-0.5,1.5-0.7,2.9-0.5,4.3c0.4,3,2.4,5.5,5.2,6.6c1,0.4,2.1,0.6,3.2,0.6c0.3,0,0.7,0,1-0.1c1.3-0.2,2.7-0.6,4-1.4
	c1.6-0.9,3.2-2.2,5-4.2c1.8,1.9,3.4,3.2,5,4.2c1.3,0.8,2.7,1.2,4,1.4c0.3,0,0.7,0.1,1,0.1c1.1,0,2.2-0.2,3.2-0.6
	c2.8-1.1,4.8-3.7,5.2-6.6C42.7,35.3,42.6,33.9,42.1,32.4z M24,34.5c-2.2-2.7-3.6-5.3-4-7.4c-0.2-0.9-0.2-1.7-0.1-2.4
	c0.1-0.6,0.3-1.2,0.6-1.7c0.8-1.1,2-1.8,3.5-1.8s2.8,0.6,3.5,1.8c0.3,0.5,0.6,1,0.6,1.7c0.1,0.7,0.1,1.6-0.1,2.4
	C27.6,29.2,26.2,31.7,24,34.5z M40,36.4c-0.3,2.1-1.7,3.9-3.6,4.7c-1,0.4-2,0.5-3,0.4c-1-0.1-2-0.4-3-1c-1.4-0.8-2.9-2-4.6-3.9
	c2.6-3.2,4.2-6.2,4.8-8.8c0.3-1.2,0.3-2.4,0.2-3.4c-0.2-1-0.5-1.9-1.1-2.7c-1.2-1.8-3.3-2.8-5.6-2.8s-4.4,1.1-5.6,2.8
	c-0.6,0.8-0.9,1.7-1.1,2.7c-0.2,1-0.1,2.2,0.2,3.4c0.6,2.6,2.2,5.6,4.8,8.9c-1.6,1.8-3.1,3.1-4.6,3.9c-1,0.6-2,0.9-3,1
	c-1.1,0.1-2.1,0-3-0.4c-2-0.8-3.4-2.6-3.6-4.7c-0.1-1,0-2,0.4-3.1c0.1-0.4,0.3-0.8,0.5-1.3c0.3-0.6,0.6-1.3,0.9-2l0-0.1
	c2.8-6,5.7-12.1,8.8-18l0.1-0.2c0.3-0.6,0.6-1.2,1-1.8c0.3-0.6,0.7-1.2,1.1-1.8c0.8-1,2-1.5,3.2-1.5c1.2,0,2.4,0.5,3.2,1.5
	c0.4,0.5,0.8,1.1,1.1,1.8c0.3,0.6,0.6,1.2,1,1.8l0.1,0.2c3,6,6,12.1,8.8,18v0c0.3,0.6,0.6,1.4,0.9,2c0.2,0.5,0.4,0.9,0.5,1.3
	C40,34.4,40.1,35.4,40,36.4z"/>
</svg>
