<?xml version="1.0" encoding="utf-8"?>
<!-- Generator: Adobe Illustrator 23.0.2, SVG Export Plug-In . SVG Version: 6.00 Build 0)  -->
<svg version="1.1" id="Layer_1" xmlns="http://www.w3.org/2000/svg" xmlns:xlink="http://www.w3.org/1999/xlink" x="0px" y="0px"
	 viewBox="0 0 48 48" style="enable-background:new 0 0 48 48;" xml:space="preserve">
<style type="text/css">
	.st0{fill:#FFFFFF;}
</style>
<g>
	<path class="st0" d="M26,32.6l0.9-1.9l-3-15.6c-0.9-4.4,0.2-6.3,3.6-7v0.1h-3.2c-0.9,0.5-2.9,1.8-1.8,7L26,32.6z"/>
	<path class="st0" d="M24.2,36.4l0.9-1.9l-4-19.4c-0.8-3.8-0.4-5.7,0.8-6.9l0,0h-2.2c-0.7,1.4-0.9,2.8-0.1,6.6L24.2,36.4z
		 M22.4,40.1l0.9-1.9l-5-23.6c-0.9-3.7-0.7-5.4-0.3-6.5h-1.9c0,2,0.2,4,0.8,5.9L22.4,40.1z M14.3,8.2h-2.2v0.1c1,1.2,1.3,2.7,2.1,6
		l6,27.8h1.4l-6-27.9C15,12.2,14.6,10.2,14.3,8.2z M9.8,8.2H7.4v0.1c2.2,0.9,3.3,2.5,4.2,6.5l5.9,27.4h1.4l-6-27.7
		C11.8,9.7,10.7,8.8,9.8,8.2z M40.5,8.2c-2.9,1.6-4.6,4.7-8.1,12.3h0.1c4.1-7.7,6.4-10.7,11.7-12.3l0,0H40.5z M32.2,20.3L32.2,20.3
		c3.5-7.8,4.3-10.1,5.7-12.1v0h-2.7v0.1C35.5,11.4,34.4,14.3,32.2,20.3z"/>
	<path class="st0" d="M32,20.2L32,20.2c2.2-7,2.9-10.2,1-12.1h-2.6v0.1C33.4,9.3,34,12.3,32,20.2z"/>
</g>
</svg>
